<svg xmlns="http://www.w3.org/2000/svg" width="26.675" height="32.93" viewBox="0 0 26.675 32.93">
  <g id="add-user-svgrepo-com" transform="translate(-47.768)">
    <g id="Group_4" data-name="Group 4" transform="translate(47.768 0)">
      <circle id="Ellipse_3" data-name="Ellipse 3" cx="6.678" cy="6.678" r="6.678" transform="translate(2.371)" fill="#ebeefd"/>
      <path id="Path_6" data-name="Path 6" d="M66.536,217.413a7.889,7.889,0,0,0-2.481.405,9.148,9.148,0,0,0-7.237-3.491,8.879,8.879,0,0,0-9.049,8.7v4.831H59.057a7.9,7.9,0,1,0,7.479-10.446Zm-6.163,7.906a6.164,6.164,0,1,1,6.163,6.164A6.172,6.172,0,0,1,60.373,225.318Z" transform="translate(-47.768 -200.295)" fill="#ebeefd"/>
      <path id="Path_7" data-name="Path 7" d="M277.811,312.97h-1.963c0,.941,0,3.415,0,3.415s-2.13,0-3.183,0v1.962h3.183s0,2.471,0,3.416h1.963c0-.945,0-3.416,0-3.416h3.182v-1.963h-3.182S277.808,313.911,277.811,312.97Z" transform="translate(-257.941 -292.48)" fill="#ebeefd"/>
    </g>
  </g>
</svg>
