<svg xmlns="http://www.w3.org/2000/svg" width="34.1" height="32.93" viewBox="0 0 34.1 32.93">
  <g id="change-password-icon" transform="translate(0 0)">
    <path id="Path_9" data-name="Path 9" d="M11.961,15.086h1.148V12.661a4.744,4.744,0,0,1,1.4-3.359h0a4.738,4.738,0,0,1,6.719,0h0a4.744,4.744,0,0,1,1.4,3.359v2.425h.915a.372.372,0,0,1,.37.37v7.827a.372.372,0,0,1-.371.37H11.961a.372.372,0,0,1-.371-.37V15.456a.372.372,0,0,1,.371-.37ZM4.629,6.162a14.638,14.638,0,0,0-1.4,2.069,16.628,16.628,0,0,0-2.079,9.586,16.036,16.036,0,0,0,3.712,8.955,18.277,18.277,0,0,0,2.534,2.489,16.065,16.065,0,0,0,20.688-.212,18.236,18.236,0,0,0,2.474-2.534,16,16,0,0,0,3.35-7.531,16.221,16.221,0,0,0-.852-8.23,17.552,17.552,0,0,0-4.378-6.717,14.811,14.811,0,0,0-6.7-3.626,14.588,14.588,0,0,0-2.5-.381,14.943,14.943,0,0,0-2.609.062,1.016,1.016,0,1,0,.223,2.02,12.921,12.921,0,0,1,2.259-.054,12.508,12.508,0,0,1,2.145.326,12.784,12.784,0,0,1,5.783,3.133,15.534,15.534,0,0,1,3.869,5.946,14.2,14.2,0,0,1,.748,7.2,13.971,13.971,0,0,1-2.929,6.577,16.206,16.206,0,0,1-2.2,2.255,14.036,14.036,0,0,1-18.112.181,16.258,16.258,0,0,1-2.256-2.211,14.007,14.007,0,0,1-3.234-7.826A14.6,14.6,0,0,1,5,9.225,13.115,13.115,0,0,1,6.389,7.216l.148,4.078a1.014,1.014,0,0,0,2.027-.072l-.236-6.5a1.014,1.014,0,0,0-1.05-.978c-.035,0-.069,0-.1.009h0l-6.3.885A1.015,1.015,0,0,0,1.155,6.65l3.475-.488Zm10.328,8.924h5.817V12.634a2.9,2.9,0,0,0-.854-2.054h0a2.908,2.908,0,0,0-4.963,2.054v2.452Zm2.932,4.283.587,2.71-1.609.007.472-2.746a1.092,1.092,0,1,1,.55.03Z" transform="translate(0 0)" fill="#ebeefd" fill-rule="evenodd"/>
  </g>
</svg>
