<svg xmlns="http://www.w3.org/2000/svg" width="21" height="19" viewBox="0 0 21 19">
  <path id="download" d="M11.813,1.188A1.253,1.253,0,0,0,10.5,0,1.253,1.253,0,0,0,9.188,1.188v9.006L6.177,7.47a1.414,1.414,0,0,0-1.858,0,1.111,1.111,0,0,0,0,1.681l5.25,4.75a1.414,1.414,0,0,0,1.858,0l5.25-4.75a1.111,1.111,0,0,0,0-1.681,1.414,1.414,0,0,0-1.858,0l-3.006,2.724ZM2.625,13.063A2.512,2.512,0,0,0,0,15.438v1.188A2.512,2.512,0,0,0,2.625,19h15.75A2.512,2.512,0,0,0,21,16.625V15.438a2.512,2.512,0,0,0-2.625-2.375H14.212l-1.858,1.681a2.823,2.823,0,0,1-3.712,0L6.788,13.063Zm15.094,2.078a.9.9,0,1,1-.984.891A.941.941,0,0,1,17.719,15.141Z" fill="aliceblue"/>
</svg>
