<svg xmlns="http://www.w3.org/2000/svg" width="23.532" height="31.376" viewBox="0 0 23.532 31.376">
  <path id="file-powerpoint" d="M3.922,28.435a.983.983,0,0,1-.981-.981V3.922a.983.983,0,0,1,.981-.981h9.805v4.9a1.959,1.959,0,0,0,1.961,1.961h4.9V27.454a.983.983,0,0,1-.981.981ZM3.922,0A3.926,3.926,0,0,0,0,3.922V27.454a3.926,3.926,0,0,0,3.922,3.922H19.61a3.926,3.926,0,0,0,3.922-3.922V9.468a3.923,3.923,0,0,0-1.146-2.776L16.834,1.146A3.909,3.909,0,0,0,14.064,0ZM8.334,12.747a1.467,1.467,0,0,0-1.471,1.471v9.805a1.471,1.471,0,1,0,2.942,0V22.061h2.7a4.657,4.657,0,0,0,0-9.315ZM12.5,19.12h-2.7V15.688h2.7a1.716,1.716,0,1,1,0,3.432Z" fill="#36A7FD"/>
</svg>
