<svg xmlns="http://www.w3.org/2000/svg" width="26.349" height="30.114" viewBox="0 0 26.349 30.114">
  <path id="file-pdf" d="M3.764,27.29H5.646v2.823H3.764A3.768,3.768,0,0,1,0,26.349V3.764A3.768,3.768,0,0,1,3.764,0H13.5a3.765,3.765,0,0,1,2.664,1.1l5.323,5.323a3.765,3.765,0,0,1,1.1,2.664v7.852H19.762V9.41H15.057a1.88,1.88,0,0,1-1.882-1.882V2.823H3.764a.944.944,0,0,0-.941.941V26.349A.944.944,0,0,0,3.764,27.29ZM9.41,20.7h1.412a3.294,3.294,0,1,1,0,6.587h-.471v1.882a.941.941,0,1,1-1.882,0V21.644A.944.944,0,0,1,9.41,20.7Zm1.412,4.705a1.412,1.412,0,1,0,0-2.823h-.471v2.823Zm4.235-3.764A.944.944,0,0,1,16,20.7h1.412a2.824,2.824,0,0,1,2.823,2.823V27.29a2.824,2.824,0,0,1-2.823,2.823H16a.944.944,0,0,1-.941-.941Zm1.882,6.587h.471a.944.944,0,0,0,.941-.941V23.526a.944.944,0,0,0-.941-.941h-.471ZM22.585,20.7h2.823a.941.941,0,1,1,0,1.882H23.526v1.882h1.882a.941.941,0,1,1,0,1.882H23.526v2.823a.941.941,0,1,1-1.882,0V21.644A.944.944,0,0,1,22.585,20.7Z" fill="#36A7FD"/>
</svg>
