<svg xmlns="http://www.w3.org/2000/svg" width="23.532" height="31.376" viewBox="0 0 23.532 31.376">
  <path id="file-excel" d="M3.922,0A3.926,3.926,0,0,0,0,3.922V27.454a3.926,3.926,0,0,0,3.922,3.922H19.61a3.926,3.926,0,0,0,3.922-3.922V9.805H15.688a1.959,1.959,0,0,1-1.961-1.961V0ZM15.688,0V7.844h7.844ZM9.542,15.333l2.225,3.181,2.225-3.181A1.47,1.47,0,0,1,16.4,17.018l-2.837,4.063,2.843,4.057A1.47,1.47,0,1,1,14,26.823l-2.231-3.181L9.542,26.823a1.47,1.47,0,0,1-2.408-1.685l2.837-4.057L7.127,17.024a1.47,1.47,0,1,1,2.408-1.685Z" fill="#36A7FD"/>
</svg>
