<svg xmlns="http://www.w3.org/2000/svg" width="24.643" height="31.752" viewBox="0 0 24.643 31.752">
  <path id="file-word" d="M4.107,0A4.044,4.044,0,0,0,0,3.969V27.783a4.044,4.044,0,0,0,4.107,3.969H20.535a4.044,4.044,0,0,0,4.107-3.969V9.923H16.428a2.018,2.018,0,0,1-2.054-1.985V0ZM16.428,0V7.938h8.214ZM7.123,15.944l1.72,5.532,2.028-5.6a1.562,1.562,0,0,1,2.913,0l2.028,5.6,1.707-5.532a1.551,1.551,0,0,1,1.919-1A1.482,1.482,0,0,1,20.471,16.8l-3.08,9.923a1.555,1.555,0,0,1-2.926.062l-2.143-5.91-2.137,5.91a1.543,1.543,0,0,1-1.489,1,1.518,1.518,0,0,1-1.437-1.06L4.178,16.8a1.482,1.482,0,0,1,1.033-1.854,1.551,1.551,0,0,1,1.919,1Z" fill="#36A7FD"/>
</svg>
