<svg xmlns="http://www.w3.org/2000/svg" width="19.232" height="21.411" viewBox="0 0 19.232 21.411">
  <path id="open-file" d="M10.7,5.364,7.751,8.647,6.779,7.565,8.555,5.588H4.434a1.96,1.96,0,0,0-1.457.672,2.482,2.482,0,0,0,0,3.244,1.96,1.96,0,0,0,1.457.672h.687v1.529H4.434a3.267,3.267,0,0,1-2.428-1.12,4.136,4.136,0,0,1,0-5.407,3.267,3.267,0,0,1,2.428-1.12H8.555l-.687-.765h0L6.779,2.081,7.751,1,10.7,4.283Zm-4.2,4.047,1.256,1.4.118-.131v10.2h10.99V10.176H13.363V4.059h-1.29V3.649l-1.006-1.12h3.945l.412.153,4.671,5.353.137.612v13l-.687.765H7.182l-.687-.765V9.411Zm8.242-5.353V8.647h3.988Z" transform="translate(-1 -1)" fill="aliceblue" fill-rule="evenodd"/>
</svg>
