<svg xmlns="http://www.w3.org/2000/svg" width="45.37" height="53.511" viewBox="0 0 45.37 53.511">
  <g id="upload" transform="translate(-32)">
    <path id="Path_13" data-name="Path 13" d="M68.226,14.884v6.884H82.338V56.185a2.331,2.331,0,0,1-2.352,2.295H42.352A2.323,2.323,0,0,1,40,56.185V10.295A2.323,2.323,0,0,1,42.352,8H68.226Z" transform="translate(-6.484 -6.484)" fill="rgba(0,0,0,0)"/>
    <g id="Group_6" data-name="Group 6" transform="translate(32 0)">
      <path id="Path_14" data-name="Path 14" d="M32,3.49V50.021a3.541,3.541,0,0,0,3.582,3.49H73.788a3.541,3.541,0,0,0,3.582-3.49V12.8a1.145,1.145,0,0,0-.35-.822L65.081.341A1.2,1.2,0,0,0,64.237,0H35.582A3.541,3.541,0,0,0,32,3.49ZM63.043,2.327h.7l11.24,10.951v.682H63.043ZM60.655,6.98h-20.3a1.179,1.179,0,0,0-1.194,1.163v6.98a1.194,1.194,0,0,0,2.388,0V9.306h19.1v5.816a1.179,1.179,0,0,0,1.194,1.163H74.982V50.021a1.18,1.18,0,0,1-1.194,1.163H35.582a1.18,1.18,0,0,1-1.194-1.163V3.49a1.18,1.18,0,0,1,1.194-1.163H60.655Z" transform="translate(-32 0)" fill="#05c896"/>
      <path id="Path_15" data-name="Path 15" d="M130.586,139.691l6.507-6.507v26.657a1.516,1.516,0,1,0,3.032,0V133.183l6.507,6.507a1.516,1.516,0,1,0,2.143-2.143l-9.093-9.093a1.5,1.5,0,0,0-.494-.329,1.52,1.52,0,0,0-1.652.329l-9.093,9.093a1.516,1.516,0,0,0,2.143,2.143Z" transform="translate(-115.924 -114.567)" fill="#05c896"/>
    </g>
  </g>
</svg>
