<svg xmlns="http://www.w3.org/2000/svg" width="34.295" height="32.93" viewBox="0 0 34.295 32.93">
  <path id="user-role-svgrepo-com" d="M33.434,45.222A11.879,11.879,0,0,1,35.1,39.371c1.2-2.123,2.581-2.983,3.671-4.589a10.471,10.471,0,0,0,.975-9.293,7.168,7.168,0,0,0-7-4.589,7.1,7.1,0,0,0-6.712,4.934,8.973,8.973,0,0,0,1.95,9.523c1.09.975,2.065,2.581,1.492,4.073-.516,1.434-2.237,2.065-3.442,2.639-2.811,1.2-6.138,2.926-6.712,6.253a4.448,4.448,0,0,0,4.245,5.507H35.729A.727.727,0,0,0,36.3,52.68,11.223,11.223,0,0,1,33.434,45.222Zm11.473-8.6a8.6,8.6,0,1,0,8.6,8.6A8.63,8.63,0,0,0,44.908,36.617ZM46.4,46.025a2.465,2.465,0,0,1-.688-.115l-3.27,3.27a.994.994,0,0,1-.688.287.772.772,0,0,1-.688-.287,1.122,1.122,0,0,1,0-1.434l3.27-3.27a2.465,2.465,0,0,1-.115-.688A2.676,2.676,0,0,1,46.8,40.92a2.465,2.465,0,0,1,.688.115c.115,0,.115.115.057.229L46.055,42.7a.215.215,0,0,0,0,.344l.975.975a.277.277,0,0,0,.4,0l1.434-1.434c.057-.057.229-.057.229.057a3.435,3.435,0,0,1,.115.688A2.562,2.562,0,0,1,46.4,46.025Z" transform="translate(-19.218 -20.898)" fill="#ebeefd"/>
</svg>
