<svg xmlns="http://www.w3.org/2000/svg" width="34.002" height="29.837" viewBox="0 0 34.002 29.837" fill = 'aliceblue'>
  <g id="XMLID_51_" transform="translate(-0.001 -30.318)" opacity="0.35">
    <path id="XMLID_53_" d="M164.711,397.8a.55.55,0,0,0,.859.454l3.784-2.584-4.644-2.213V397.8Z" transform="translate(-153.396 -338.193)" />
    <path id="XMLID_52_" d="M33.826,30.464a.551.551,0,0,0-.374-.146.542.542,0,0,0-.24.056L.544,46.4a.972.972,0,0,0,.011,1.75l8.61,4.1L26.379,38.1,11.3,53.267l10.726,5.111a.971.971,0,0,0,1.322-.519L33.964,31.069A.547.547,0,0,0,33.826,30.464Z" />
  </g>
</svg>
